# Blender 4.2.0
# www.blender.org
mtllib plane.mtl
o Cube
v 1.000000 0.000000 -0.937953
v -1.000000 0.000000 -0.937953
v -1.000000 0.000000 0.062047
v 1.000000 0.000000 0.062047
v 0.000000 0.000000 -0.937953
v 0.000000 0.000000 0.062047
v 1.000000 0.000000 -0.437953
v -1.000000 0.000000 -0.437953
v 0.000000 0.000000 -0.437953
v -1.000000 0.000000 0.562047
v 1.000000 0.000000 0.562047
v 0.000000 0.000000 0.562047
v 0.500000 0.000000 -0.937953
v 0.500000 0.000000 0.062047
v 0.500000 0.000000 -0.437953
v 0.500000 0.000000 0.562047
v -0.500000 0.000000 -0.937953
v -0.500000 0.000000 0.062047
v -0.500000 0.000000 -0.437953
v -0.500000 0.000000 0.562047
v -1.000000 0.000000 -0.187953
v 0.000000 0.000000 -0.187953
v 1.000000 0.000000 -0.187953
v 0.500000 0.000000 -0.187953
v -0.500000 0.000000 -0.187953
v 1.000000 0.000000 -0.687953
v -1.000000 0.000000 -0.687953
v 0.000000 0.000000 -0.687953
v 0.500000 0.000000 -0.687953
v -0.500000 0.000000 -0.687953
v 1.000000 0.000000 0.312047
v -1.000000 0.000000 0.312047
v 0.000000 0.000000 0.312047
v 0.500000 0.000000 0.312047
v -0.500000 0.000000 0.312047
v -1.000000 0.000000 0.815668
v 0.000000 0.000000 0.815668
v 1.000000 0.000000 0.815668
v 0.500000 0.000000 0.815668
v -0.500000 0.000000 0.815668
v -0.750000 0.000000 -0.937953
v -0.750000 0.000000 0.062047
v -0.750000 0.000000 -0.437953
v -0.750000 0.000000 0.562047
v -0.750000 0.000000 -0.187953
v -0.750000 0.000000 -0.687953
v -0.750000 0.000000 0.312047
v -0.750000 0.000000 0.815668
v -0.250000 0.000000 -0.937953
v -0.250000 0.000000 0.062047
v -0.250000 0.000000 -0.437953
v -0.250000 0.000000 0.562047
v -0.250000 0.000000 -0.187953
v -0.250000 0.000000 -0.687953
v -0.250000 0.000000 0.312047
v -0.250000 0.000000 0.815668
v 0.250000 0.000000 -0.937953
v 0.250000 0.000000 0.062047
v 0.250000 0.000000 -0.437953
v 0.250000 0.000000 0.562047
v 0.250000 0.000000 -0.187953
v 0.250000 0.000000 -0.687953
v 0.250000 0.000000 0.312047
v 0.250000 0.000000 0.815668
v 0.750000 0.000000 -0.937953
v 0.750000 0.000000 0.062047
v 0.750000 0.000000 -0.437953
v 0.750000 0.000000 0.562047
v 0.750000 0.000000 -0.187953
v 0.750000 0.000000 -0.687953
v 0.750000 0.000000 0.312047
v 0.750000 0.000000 0.815668
v -1.000000 0.000000 0.938858
v 0.000000 0.000000 0.938858
v 0.500000 0.000000 0.938858
v -0.500000 0.000000 0.938858
v 1.000000 0.000000 0.938858
v -0.750000 0.000000 0.938858
v -0.250000 0.000000 0.938858
v 0.250000 0.000000 0.938858
v 0.750000 0.000000 0.938858
v 1.000000 0.000000 0.688858
v -1.000000 0.000000 0.688858
v 0.000000 0.000000 0.688858
v 0.500000 0.000000 0.688858
v -0.500000 0.000000 0.688858
v -0.750000 0.000000 0.688858
v -0.250000 0.000000 0.688858
v 0.250000 0.000000 0.688858
v 0.750000 0.000000 0.688858
v -1.000000 0.000000 0.437047
v 0.000000 0.000000 0.437047
v 0.500000 0.000000 0.437047
v -0.500000 0.000000 0.437047
v 1.000000 0.000000 0.437047
v -0.750000 0.000000 0.437047
v -0.250000 0.000000 0.437047
v 0.250000 0.000000 0.437047
v 0.750000 0.000000 0.437047
v 1.000000 0.000000 0.187047
v -1.000000 0.000000 0.187047
v 0.000000 0.000000 0.187047
v 0.500000 0.000000 0.187047
v -0.500000 0.000000 0.187047
v -0.750000 0.000000 0.187047
v -0.250000 0.000000 0.187047
v 0.250000 0.000000 0.187047
v 0.750000 0.000000 0.187047
v -1.000000 0.000000 -0.062953
v 0.000000 0.000000 -0.062953
v 0.500000 0.000000 -0.062953
v -0.500000 0.000000 -0.062953
v 1.000000 0.000000 -0.062953
v -0.750000 0.000000 -0.062953
v -0.250000 0.000000 -0.062953
v 0.250000 0.000000 -0.062953
v 0.750000 0.000000 -0.062953
v 1.000000 0.000000 -0.312953
v -1.000000 0.000000 -0.312953
v 0.000000 0.000000 -0.312953
v 0.500000 0.000000 -0.312953
v -0.500000 0.000000 -0.312953
v -0.750000 0.000000 -0.312953
v -0.250000 0.000000 -0.312953
v 0.250000 0.000000 -0.312953
v 0.750000 0.000000 -0.312953
v -1.000000 0.000000 -0.562953
v 0.000000 0.000000 -0.562953
v 0.500000 0.000000 -0.562953
v -0.500000 0.000000 -0.562953
v 1.000000 0.000000 -0.562953
v -0.750000 0.000000 -0.562953
v -0.250000 0.000000 -0.562953
v 0.250000 0.000000 -0.562953
v 0.750000 0.000000 -0.562953
v 1.000000 0.000000 -0.812953
v -1.000000 0.000000 -0.812953
v 0.000000 0.000000 -0.812953
v 0.500000 0.000000 -0.812953
v -0.500000 0.000000 -0.812953
v -0.750000 0.000000 -0.812953
v -0.250000 0.000000 -0.812953
v 0.250000 0.000000 -0.812953
v 0.750000 0.000000 -0.812953
v 0.875000 0.000000 -0.937953
v 0.875000 0.000000 0.062047
v 0.875000 0.000000 -0.437953
v 0.875000 0.000000 0.562047
v 0.875000 0.000000 -0.187953
v 0.875000 0.000000 -0.687953
v 0.875000 0.000000 0.312047
v 0.875000 0.000000 0.815668
v 0.875000 0.000000 0.938858
v 0.875000 0.000000 0.688858
v 0.875000 0.000000 0.437047
v 0.875000 0.000000 0.187047
v 0.875000 0.000000 -0.062953
v 0.875000 0.000000 -0.312953
v 0.875000 0.000000 -0.562953
v 0.875000 0.000000 -0.812953
v 0.625000 0.000000 -0.937953
v 0.625000 0.000000 0.062047
v 0.625000 0.000000 -0.437953
v 0.625000 0.000000 0.562047
v 0.625000 0.000000 -0.187953
v 0.625000 0.000000 -0.687953
v 0.625000 0.000000 0.312047
v 0.625000 0.000000 0.815668
v 0.625000 0.000000 0.938858
v 0.625000 0.000000 0.688858
v 0.625000 0.000000 0.437047
v 0.625000 0.000000 0.187047
v 0.625000 0.000000 -0.062953
v 0.625000 0.000000 -0.312953
v 0.625000 0.000000 -0.562953
v 0.625000 0.000000 -0.812953
v 0.375000 0.000000 -0.937953
v 0.375000 0.000000 0.062047
v 0.375000 0.000000 -0.437953
v 0.375000 0.000000 0.562047
v 0.375000 0.000000 -0.187953
v 0.375000 0.000000 -0.687953
v 0.375000 0.000000 0.312047
v 0.375000 0.000000 0.815668
v 0.375000 0.000000 0.938858
v 0.375000 0.000000 0.688858
v 0.375000 0.000000 0.437047
v 0.375000 0.000000 0.187047
v 0.375000 0.000000 -0.062953
v 0.375000 0.000000 -0.312953
v 0.375000 0.000000 -0.562953
v 0.375000 0.000000 -0.812953
v 0.125000 0.000000 -0.937953
v 0.125000 0.000000 0.062047
v 0.125000 0.000000 -0.437953
v 0.125000 0.000000 0.562047
v 0.125000 0.000000 -0.187953
v 0.125000 0.000000 -0.687953
v 0.125000 0.000000 0.312047
v 0.125000 0.000000 0.815668
v 0.125000 0.000000 0.938858
v 0.125000 0.000000 0.688858
v 0.125000 0.000000 0.437047
v 0.125000 0.000000 0.187047
v 0.125000 0.000000 -0.062953
v 0.125000 0.000000 -0.312953
v 0.125000 0.000000 -0.562953
v 0.125000 0.000000 -0.812953
v -0.125000 0.000000 -0.937953
v -0.125000 0.000000 0.062047
v -0.125000 0.000000 -0.437953
v -0.125000 0.000000 0.562047
v -0.125000 0.000000 -0.187953
v -0.125000 0.000000 -0.687953
v -0.125000 0.000000 0.312047
v -0.125000 0.000000 0.815668
v -0.125000 0.000000 0.938858
v -0.125000 0.000000 0.688858
v -0.125000 0.000000 0.437047
v -0.125000 0.000000 0.187047
v -0.125000 0.000000 -0.062953
v -0.125000 0.000000 -0.312953
v -0.125000 0.000000 -0.562953
v -0.125000 0.000000 -0.812953
v -0.375000 0.000000 -0.937953
v -0.375000 0.000000 0.062047
v -0.375000 0.000000 -0.437953
v -0.375000 0.000000 0.562047
v -0.375000 0.000000 -0.187953
v -0.375000 0.000000 -0.687953
v -0.375000 0.000000 0.312047
v -0.375000 0.000000 0.815668
v -0.375000 0.000000 0.938858
v -0.375000 0.000000 0.688858
v -0.375000 0.000000 0.437047
v -0.375000 0.000000 0.187047
v -0.375000 0.000000 -0.062953
v -0.375000 0.000000 -0.312953
v -0.375000 0.000000 -0.562953
v -0.375000 0.000000 -0.812953
v -0.625000 0.000000 -0.937953
v -0.625000 0.000000 0.062047
v -0.625000 0.000000 -0.437953
v -0.625000 0.000000 0.562047
v -0.625000 0.000000 -0.187953
v -0.625000 0.000000 -0.687953
v -0.625000 0.000000 0.312047
v -0.625000 0.000000 0.815668
v -0.625000 0.000000 0.938858
v -0.625000 0.000000 0.688858
v -0.625000 0.000000 0.437047
v -0.625000 0.000000 0.187047
v -0.625000 0.000000 -0.062953
v -0.625000 0.000000 -0.312953
v -0.625000 0.000000 -0.562953
v -0.625000 0.000000 -0.812953
v -0.875000 0.000000 -0.937953
v -0.875000 0.000000 0.062047
v -0.875000 0.000000 -0.437953
v -0.875000 0.000000 0.562047
v -0.875000 0.000000 -0.187953
v -0.875000 0.000000 -0.687953
v -0.875000 0.000000 0.312047
v -0.875000 0.000000 0.815668
v -0.875000 0.000000 0.938858
v -0.875000 0.000000 0.688858
v -0.875000 0.000000 0.437047
v -0.875000 0.000000 0.187047
v -0.875000 0.000000 -0.062953
v -0.875000 0.000000 -0.312953
v -0.875000 0.000000 -0.562953
v -0.875000 0.000000 -0.812953
vn -0.0000 -1.0000 -0.0000
vt 0.359375 0.609375
vt 0.375000 0.609375
vt 0.375000 0.625000
vt 0.359375 0.625000
vt 0.234375 0.609375
vt 0.250000 0.609375
vt 0.250000 0.625000
vt 0.234375 0.625000
vt 0.234375 0.546875
vt 0.250000 0.546875
vt 0.250000 0.562500
vt 0.234375 0.562500
vt 0.359375 0.546875
vt 0.375000 0.546875
vt 0.375000 0.562500
vt 0.359375 0.562500
vt 0.234375 0.671875
vt 0.250000 0.671875
vt 0.250000 0.687500
vt 0.234375 0.687500
vt 0.359375 0.671875
vt 0.375000 0.671875
vt 0.375000 0.687500
vt 0.359375 0.687500
vt 0.296875 0.671875
vt 0.312500 0.671875
vt 0.312500 0.687500
vt 0.296875 0.687500
vt 0.296875 0.546875
vt 0.312500 0.546875
vt 0.312500 0.562500
vt 0.296875 0.562500
vt 0.296875 0.609375
vt 0.312500 0.609375
vt 0.312500 0.625000
vt 0.296875 0.625000
vt 0.171875 0.671875
vt 0.187500 0.671875
vt 0.187500 0.687500
vt 0.171875 0.687500
vt 0.171875 0.546875
vt 0.187500 0.546875
vt 0.187500 0.562500
vt 0.171875 0.562500
vt 0.171875 0.609375
vt 0.187500 0.609375
vt 0.187500 0.625000
vt 0.171875 0.625000
vt 0.171875 0.578125
vt 0.187500 0.578125
vt 0.187500 0.593750
vt 0.171875 0.593750
vt 0.296875 0.578125
vt 0.312500 0.578125
vt 0.312500 0.593750
vt 0.296875 0.593750
vt 0.234375 0.578125
vt 0.250000 0.578125
vt 0.250000 0.593750
vt 0.234375 0.593750
vt 0.359375 0.578125
vt 0.375000 0.578125
vt 0.375000 0.593750
vt 0.359375 0.593750
vt 0.171875 0.515625
vt 0.187500 0.515625
vt 0.187500 0.531250
vt 0.171875 0.531250
vt 0.296875 0.515625
vt 0.312500 0.515625
vt 0.312500 0.531250
vt 0.296875 0.531250
vt 0.359375 0.515625
vt 0.375000 0.515625
vt 0.375000 0.531250
vt 0.359375 0.531250
vt 0.234375 0.515625
vt 0.250000 0.515625
vt 0.250000 0.531250
vt 0.234375 0.531250
vt 0.171875 0.640625
vt 0.187500 0.640625
vt 0.187500 0.656250
vt 0.171875 0.656250
vt 0.296875 0.640625
vt 0.312500 0.640625
vt 0.312500 0.656250
vt 0.296875 0.656250
vt 0.359375 0.640625
vt 0.375000 0.640625
vt 0.375000 0.656250
vt 0.359375 0.656250
vt 0.234375 0.640625
vt 0.250000 0.640625
vt 0.250000 0.656250
vt 0.234375 0.656250
vt 0.171875 0.703351
vt 0.187500 0.703351
vt 0.187500 0.719203
vt 0.171875 0.719203
vt 0.296875 0.703351
vt 0.312500 0.703351
vt 0.312500 0.719203
vt 0.296875 0.719203
vt 0.234375 0.703351
vt 0.250000 0.703351
vt 0.250000 0.719203
vt 0.234375 0.719203
vt 0.359375 0.703351
vt 0.375000 0.703351
vt 0.375000 0.719203
vt 0.359375 0.719203
vt 0.140625 0.703351
vt 0.156250 0.703351
vt 0.156250 0.719203
vt 0.140625 0.719203
vt 0.140625 0.640625
vt 0.156250 0.640625
vt 0.156250 0.656250
vt 0.140625 0.656250
vt 0.140625 0.515625
vt 0.156250 0.515625
vt 0.156250 0.531250
vt 0.140625 0.531250
vt 0.140625 0.578125
vt 0.156250 0.578125
vt 0.156250 0.593750
vt 0.140625 0.593750
vt 0.140625 0.609375
vt 0.156250 0.609375
vt 0.156250 0.625000
vt 0.140625 0.625000
vt 0.140625 0.546875
vt 0.156250 0.546875
vt 0.156250 0.562500
vt 0.140625 0.562500
vt 0.140625 0.671875
vt 0.156250 0.671875
vt 0.156250 0.687500
vt 0.140625 0.687500
vt 0.203125 0.703351
vt 0.218750 0.703351
vt 0.218750 0.719203
vt 0.203125 0.719203
vt 0.203125 0.640625
vt 0.218750 0.640625
vt 0.218750 0.656250
vt 0.203125 0.656250
vt 0.203125 0.515625
vt 0.218750 0.515625
vt 0.218750 0.531250
vt 0.203125 0.531250
vt 0.203125 0.578125
vt 0.218750 0.578125
vt 0.218750 0.593750
vt 0.203125 0.593750
vt 0.203125 0.671875
vt 0.218750 0.671875
vt 0.218750 0.687500
vt 0.203125 0.687500
vt 0.203125 0.546875
vt 0.218750 0.546875
vt 0.218750 0.562500
vt 0.203125 0.562500
vt 0.203125 0.609375
vt 0.218750 0.609375
vt 0.218750 0.625000
vt 0.203125 0.625000
vt 0.265625 0.703351
vt 0.281250 0.703351
vt 0.281250 0.719203
vt 0.265625 0.719203
vt 0.265625 0.640625
vt 0.281250 0.640625
vt 0.281250 0.656250
vt 0.265625 0.656250
vt 0.265625 0.515625
vt 0.281250 0.515625
vt 0.281250 0.531250
vt 0.265625 0.531250
vt 0.265625 0.578125
vt 0.281250 0.578125
vt 0.281250 0.593750
vt 0.265625 0.593750
vt 0.265625 0.609375
vt 0.281250 0.609375
vt 0.281250 0.625000
vt 0.265625 0.625000
vt 0.265625 0.546875
vt 0.281250 0.546875
vt 0.281250 0.562500
vt 0.265625 0.562500
vt 0.265625 0.671875
vt 0.281250 0.671875
vt 0.281250 0.687500
vt 0.265625 0.687500
vt 0.328125 0.703351
vt 0.343750 0.703351
vt 0.343750 0.719203
vt 0.328125 0.719203
vt 0.328125 0.640625
vt 0.343750 0.640625
vt 0.343750 0.656250
vt 0.328125 0.656250
vt 0.328125 0.515625
vt 0.343750 0.515625
vt 0.343750 0.531250
vt 0.328125 0.531250
vt 0.328125 0.578125
vt 0.343750 0.578125
vt 0.343750 0.593750
vt 0.328125 0.593750
vt 0.328125 0.671875
vt 0.343750 0.671875
vt 0.343750 0.687500
vt 0.328125 0.687500
vt 0.328125 0.546875
vt 0.343750 0.546875
vt 0.343750 0.562500
vt 0.328125 0.562500
vt 0.328125 0.609375
vt 0.343750 0.609375
vt 0.343750 0.625000
vt 0.328125 0.625000
vt 0.343750 0.734601
vt 0.328125 0.734601
vt 0.281250 0.734601
vt 0.265625 0.734601
vt 0.218750 0.734601
vt 0.203125 0.734601
vt 0.156250 0.734601
vt 0.140625 0.734601
vt 0.187500 0.734601
vt 0.171875 0.734601
vt 0.312500 0.734601
vt 0.296875 0.734601
vt 0.250000 0.734601
vt 0.234375 0.734601
vt 0.375000 0.734601
vt 0.359375 0.734601
vt 0.328125 0.500000
vt 0.343750 0.500000
vt 0.265625 0.500000
vt 0.281250 0.500000
vt 0.203125 0.500000
vt 0.218750 0.500000
vt 0.140625 0.500000
vt 0.156250 0.500000
vt 0.234375 0.500000
vt 0.250000 0.500000
vt 0.359375 0.500000
vt 0.375000 0.500000
vt 0.296875 0.500000
vt 0.312500 0.500000
vt 0.171875 0.500000
vt 0.187500 0.500000
vt 0.125000 0.500000
vt 0.125000 0.515625
vt 0.125000 0.531250
vt 0.125000 0.546875
vt 0.125000 0.562500
vt 0.125000 0.578125
vt 0.125000 0.593750
vt 0.125000 0.609375
vt 0.125000 0.625000
vt 0.125000 0.640625
vt 0.125000 0.656250
vt 0.125000 0.671875
vt 0.125000 0.687500
vt 0.125000 0.703351
vt 0.125000 0.719203
vt 0.125000 0.734601
s 0
usemtl Material
f 157/1/1 113/2/1 4/3/1 146/4/1
f 221/5/1 110/6/1 6/7/1 210/8/1
f 223/9/1 128/10/1 9/11/1 211/12/1
f 159/13/1 131/14/1 7/15/1 147/16/1
f 219/17/1 92/18/1 12/19/1 212/20/1
f 155/21/1 95/22/1 11/23/1 148/24/1
f 187/25/1 93/26/1 16/27/1 180/28/1
f 191/29/1 129/30/1 15/31/1 179/32/1
f 189/33/1 111/34/1 14/35/1 178/36/1
f 251/37/1 94/38/1 20/39/1 244/40/1
f 255/41/1 130/42/1 19/43/1 243/44/1
f 253/45/1 112/46/1 18/47/1 242/48/1
f 254/49/1 122/50/1 25/51/1 245/52/1
f 190/53/1 121/54/1 24/55/1 181/56/1
f 222/57/1 120/58/1 22/59/1 213/60/1
f 158/61/1 118/62/1 23/63/1 149/64/1
f 256/65/1 140/66/1 30/67/1 246/68/1
f 192/69/1 139/70/1 29/71/1 182/72/1
f 160/73/1 136/74/1 26/75/1 150/76/1
f 224/77/1 138/78/1 28/79/1 214/80/1
f 252/81/1 104/82/1 35/83/1 247/84/1
f 188/85/1 103/86/1 34/87/1 183/88/1
f 156/89/1 100/90/1 31/91/1 151/92/1
f 220/93/1 102/94/1 33/95/1 215/96/1
f 250/97/1 86/98/1 40/99/1 248/100/1
f 186/101/1 85/102/1 39/103/1 184/104/1
f 218/105/1 84/106/1 37/107/1 216/108/1
f 154/109/1 82/110/1 38/111/1 152/112/1
f 266/113/1 87/114/1 48/115/1 264/116/1
f 268/117/1 105/118/1 47/119/1 263/120/1
f 272/121/1 141/122/1 46/123/1 262/124/1
f 270/125/1 123/126/1 45/127/1 261/128/1
f 269/129/1 114/130/1 42/131/1 258/132/1
f 271/133/1 132/134/1 43/135/1 259/136/1
f 267/137/1 96/138/1 44/139/1 260/140/1
f 234/141/1 88/142/1 56/143/1 232/144/1
f 236/145/1 106/146/1 55/147/1 231/148/1
f 240/149/1 142/150/1 54/151/1 230/152/1
f 238/153/1 124/154/1 53/155/1 229/156/1
f 235/157/1 97/158/1 52/159/1 228/160/1
f 239/161/1 133/162/1 51/163/1 227/164/1
f 237/165/1 115/166/1 50/167/1 226/168/1
f 202/169/1 89/170/1 64/171/1 200/172/1
f 204/173/1 107/174/1 63/175/1 199/176/1
f 208/177/1 143/178/1 62/179/1 198/180/1
f 206/181/1 125/182/1 61/183/1 197/184/1
f 205/185/1 116/186/1 58/187/1 194/188/1
f 207/189/1 134/190/1 59/191/1 195/192/1
f 203/193/1 98/194/1 60/195/1 196/196/1
f 170/197/1 90/198/1 72/199/1 168/200/1
f 172/201/1 108/202/1 71/203/1 167/204/1
f 176/205/1 144/206/1 70/207/1 166/208/1
f 174/209/1 126/210/1 69/211/1 165/212/1
f 171/213/1 99/214/1 68/215/1 164/216/1
f 175/217/1 135/218/1 67/219/1 163/220/1
f 173/221/1 117/222/1 66/223/1 162/224/1
f 168/200/1 72/199/1 81/225/1 169/226/1
f 200/172/1 64/171/1 80/227/1 201/228/1
f 232/144/1 56/143/1 79/229/1 233/230/1
f 264/116/1 48/115/1 78/231/1 265/232/1
f 248/100/1 40/99/1 76/233/1 249/234/1
f 184/104/1 39/103/1 75/235/1 185/236/1
f 216/108/1 37/107/1 74/237/1 217/238/1
f 152/112/1 38/111/1 77/239/1 153/240/1
f 164/216/1 68/215/1 90/198/1 170/197/1
f 196/196/1 60/195/1 89/170/1 202/169/1
f 228/160/1 52/159/1 88/142/1 234/141/1
f 260/140/1 44/139/1 87/114/1 266/113/1
f 148/24/1 11/23/1 82/110/1 154/109/1
f 212/20/1 12/19/1 84/106/1 218/105/1
f 180/28/1 16/27/1 85/102/1 186/101/1
f 244/40/1 20/39/1 86/98/1 250/97/1
f 167/204/1 71/203/1 99/214/1 171/213/1
f 199/176/1 63/175/1 98/194/1 203/193/1
f 231/148/1 55/147/1 97/158/1 235/157/1
f 263/120/1 47/119/1 96/138/1 267/137/1
f 247/84/1 35/83/1 94/38/1 251/37/1
f 183/88/1 34/87/1 93/26/1 187/25/1
f 151/92/1 31/91/1 95/22/1 155/21/1
f 215/96/1 33/95/1 92/18/1 219/17/1
f 162/224/1 66/223/1 108/202/1 172/201/1
f 194/188/1 58/187/1 107/174/1 204/173/1
f 226/168/1 50/167/1 106/146/1 236/145/1
f 258/132/1 42/131/1 105/118/1 268/117/1
f 210/8/1 6/7/1 102/94/1 220/93/1
f 146/4/1 4/3/1 100/90/1 156/89/1
f 178/36/1 14/35/1 103/86/1 188/85/1
f 242/48/1 18/47/1 104/82/1 252/81/1
f 165/212/1 69/211/1 117/222/1 173/221/1
f 197/184/1 61/183/1 116/186/1 205/185/1
f 229/156/1 53/155/1 115/166/1 237/165/1
f 261/128/1 45/127/1 114/130/1 269/129/1
f 245/52/1 25/51/1 112/46/1 253/45/1
f 181/56/1 24/55/1 111/34/1 189/33/1
f 213/60/1 22/59/1 110/6/1 221/5/1
f 149/64/1 23/63/1 113/2/1 157/1/1
f 163/220/1 67/219/1 126/210/1 174/209/1
f 195/192/1 59/191/1 125/182/1 206/181/1
f 227/164/1 51/163/1 124/154/1 238/153/1
f 259/136/1 43/135/1 123/126/1 270/125/1
f 147/16/1 7/15/1 118/62/1 158/61/1
f 211/12/1 9/11/1 120/58/1 222/57/1
f 179/32/1 15/31/1 121/54/1 190/53/1
f 243/44/1 19/43/1 122/50/1 254/49/1
f 166/208/1 70/207/1 135/218/1 175/217/1
f 198/180/1 62/179/1 134/190/1 207/189/1
f 230/152/1 54/151/1 133/162/1 239/161/1
f 262/124/1 46/123/1 132/134/1 271/133/1
f 246/68/1 30/67/1 130/42/1 255/41/1
f 182/72/1 29/71/1 129/30/1 191/29/1
f 150/76/1 26/75/1 131/14/1 159/13/1
f 214/80/1 28/79/1 128/10/1 223/9/1
f 161/241/1 65/242/1 144/206/1 176/205/1
f 193/243/1 57/244/1 143/178/1 208/177/1
f 225/245/1 49/246/1 142/150/1 240/149/1
f 257/247/1 41/248/1 141/122/1 272/121/1
f 209/249/1 5/250/1 138/78/1 224/77/1
f 145/251/1 1/252/1 136/74/1 160/73/1
f 177/253/1 13/254/1 139/70/1 192/69/1
f 241/255/1 17/256/1 140/66/1 256/65/1
f 65/242/1 145/251/1 160/73/1 144/206/1
f 70/207/1 150/76/1 159/13/1 135/218/1
f 67/219/1 147/16/1 158/61/1 126/210/1
f 69/211/1 149/64/1 157/1/1 117/222/1
f 66/223/1 146/4/1 156/89/1 108/202/1
f 71/203/1 151/92/1 155/21/1 99/214/1
f 68/215/1 148/24/1 154/109/1 90/198/1
f 72/199/1 152/112/1 153/240/1 81/225/1
f 90/198/1 154/109/1 152/112/1 72/199/1
f 108/202/1 156/89/1 151/92/1 71/203/1
f 144/206/1 160/73/1 150/76/1 70/207/1
f 126/210/1 158/61/1 149/64/1 69/211/1
f 99/214/1 155/21/1 148/24/1 68/215/1
f 135/218/1 159/13/1 147/16/1 67/219/1
f 117/222/1 157/1/1 146/4/1 66/223/1
f 13/254/1 161/241/1 176/205/1 139/70/1
f 29/71/1 166/208/1 175/217/1 129/30/1
f 15/31/1 163/220/1 174/209/1 121/54/1
f 24/55/1 165/212/1 173/221/1 111/34/1
f 14/35/1 162/224/1 172/201/1 103/86/1
f 34/87/1 167/204/1 171/213/1 93/26/1
f 16/27/1 164/216/1 170/197/1 85/102/1
f 39/103/1 168/200/1 169/226/1 75/235/1
f 111/34/1 173/221/1 162/224/1 14/35/1
f 129/30/1 175/217/1 163/220/1 15/31/1
f 93/26/1 171/213/1 164/216/1 16/27/1
f 121/54/1 174/209/1 165/212/1 24/55/1
f 139/70/1 176/205/1 166/208/1 29/71/1
f 103/86/1 172/201/1 167/204/1 34/87/1
f 85/102/1 170/197/1 168/200/1 39/103/1
f 57/244/1 177/253/1 192/69/1 143/178/1
f 62/179/1 182/72/1 191/29/1 134/190/1
f 59/191/1 179/32/1 190/53/1 125/182/1
f 61/183/1 181/56/1 189/33/1 116/186/1
f 58/187/1 178/36/1 188/85/1 107/174/1
f 63/175/1 183/88/1 187/25/1 98/194/1
f 60/195/1 180/28/1 186/101/1 89/170/1
f 64/171/1 184/104/1 185/236/1 80/227/1
f 89/170/1 186/101/1 184/104/1 64/171/1
f 107/174/1 188/85/1 183/88/1 63/175/1
f 143/178/1 192/69/1 182/72/1 62/179/1
f 125/182/1 190/53/1 181/56/1 61/183/1
f 116/186/1 189/33/1 178/36/1 58/187/1
f 134/190/1 191/29/1 179/32/1 59/191/1
f 98/194/1 187/25/1 180/28/1 60/195/1
f 5/250/1 193/243/1 208/177/1 138/78/1
f 28/79/1 198/180/1 207/189/1 128/10/1
f 9/11/1 195/192/1 206/181/1 120/58/1
f 22/59/1 197/184/1 205/185/1 110/6/1
f 6/7/1 194/188/1 204/173/1 102/94/1
f 33/95/1 199/176/1 203/193/1 92/18/1
f 12/19/1 196/196/1 202/169/1 84/106/1
f 37/107/1 200/172/1 201/228/1 74/237/1
f 92/18/1 203/193/1 196/196/1 12/19/1
f 128/10/1 207/189/1 195/192/1 9/11/1
f 110/6/1 205/185/1 194/188/1 6/7/1
f 120/58/1 206/181/1 197/184/1 22/59/1
f 138/78/1 208/177/1 198/180/1 28/79/1
f 102/94/1 204/173/1 199/176/1 33/95/1
f 84/106/1 202/169/1 200/172/1 37/107/1
f 49/246/1 209/249/1 224/77/1 142/150/1
f 54/151/1 214/80/1 223/9/1 133/162/1
f 51/163/1 211/12/1 222/57/1 124/154/1
f 53/155/1 213/60/1 221/5/1 115/166/1
f 50/167/1 210/8/1 220/93/1 106/146/1
f 55/147/1 215/96/1 219/17/1 97/158/1
f 52/159/1 212/20/1 218/105/1 88/142/1
f 56/143/1 216/108/1 217/238/1 79/229/1
f 88/142/1 218/105/1 216/108/1 56/143/1
f 106/146/1 220/93/1 215/96/1 55/147/1
f 142/150/1 224/77/1 214/80/1 54/151/1
f 124/154/1 222/57/1 213/60/1 53/155/1
f 97/158/1 219/17/1 212/20/1 52/159/1
f 133/162/1 223/9/1 211/12/1 51/163/1
f 115/166/1 221/5/1 210/8/1 50/167/1
f 17/256/1 225/245/1 240/149/1 140/66/1
f 30/67/1 230/152/1 239/161/1 130/42/1
f 19/43/1 227/164/1 238/153/1 122/50/1
f 25/51/1 229/156/1 237/165/1 112/46/1
f 18/47/1 226/168/1 236/145/1 104/82/1
f 35/83/1 231/148/1 235/157/1 94/38/1
f 20/39/1 228/160/1 234/141/1 86/98/1
f 40/99/1 232/144/1 233/230/1 76/233/1
f 112/46/1 237/165/1 226/168/1 18/47/1
f 130/42/1 239/161/1 227/164/1 19/43/1
f 94/38/1 235/157/1 228/160/1 20/39/1
f 122/50/1 238/153/1 229/156/1 25/51/1
f 140/66/1 240/149/1 230/152/1 30/67/1
f 104/82/1 236/145/1 231/148/1 35/83/1
f 86/98/1 234/141/1 232/144/1 40/99/1
f 41/248/1 241/255/1 256/65/1 141/122/1
f 46/123/1 246/68/1 255/41/1 132/134/1
f 43/135/1 243/44/1 254/49/1 123/126/1
f 45/127/1 245/52/1 253/45/1 114/130/1
f 42/131/1 242/48/1 252/81/1 105/118/1
f 47/119/1 247/84/1 251/37/1 96/138/1
f 44/139/1 244/40/1 250/97/1 87/114/1
f 48/115/1 248/100/1 249/234/1 78/231/1
f 87/114/1 250/97/1 248/100/1 48/115/1
f 105/118/1 252/81/1 247/84/1 47/119/1
f 141/122/1 256/65/1 246/68/1 46/123/1
f 123/126/1 254/49/1 245/52/1 45/127/1
f 114/130/1 253/45/1 242/48/1 42/131/1
f 132/134/1 255/41/1 243/44/1 43/135/1
f 96/138/1 251/37/1 244/40/1 44/139/1
f 2/257/1 257/247/1 272/121/1 137/258/1
f 27/259/1 262/124/1 271/133/1 127/260/1
f 8/261/1 259/136/1 270/125/1 119/262/1
f 21/263/1 261/128/1 269/129/1 109/264/1
f 3/265/1 258/132/1 268/117/1 101/266/1
f 32/267/1 263/120/1 267/137/1 91/268/1
f 10/269/1 260/140/1 266/113/1 83/270/1
f 36/271/1 264/116/1 265/232/1 73/272/1
f 91/268/1 267/137/1 260/140/1 10/269/1
f 127/260/1 271/133/1 259/136/1 8/261/1
f 109/264/1 269/129/1 258/132/1 3/265/1
f 119/262/1 270/125/1 261/128/1 21/263/1
f 137/258/1 272/121/1 262/124/1 27/259/1
f 101/266/1 268/117/1 263/120/1 32/267/1
f 83/270/1 266/113/1 264/116/1 36/271/1
